<svg width="154" height="160" viewBox="0 0 54 60" fill="none" xmlns="http://www.w3.org/2000/svg">
<path d="M54 57.87V21.29C54 15.01 51.65 10.02 46.97 6.29996C42.28 2.57996 36 0.72998 28.14 0.72998C20.28 0.72998 14.13 2.52998 9.46997 6.13998C4.81997 9.74998 2.48999 14.58 2.48999 20.64H18.18C18.11 17.9 18.97 15.75 20.78 14.2C22.58 12.65 24.96 11.87 27.92 11.87C31.09 11.87 33.56 12.68 35.33 14.31C37.1 15.93 37.98 18.08 37.98 20.75V23.02L26.18 24.43C8.71999 26.59 -0.0100098 32.91 -0.0100098 43.37C-0.0100098 48.28 1.73999 52.15 5.23999 55C8.73999 57.85 13.37 59.27 19.15 59.27C23.12 59.27 26.63 58.55 29.7 57.1C32.77 55.66 35.17 53.57 36.9 50.82H37.98V57.85H54V57.87ZM34.2 45.31C31.67 47.62 28.43 48.77 24.46 48.77C21.72 48.77 19.57 48.18 18.02 46.98C16.47 45.79 15.69 44.15 15.69 42.06C15.69 39.97 16.57 38.33 18.34 36.92C20.11 35.51 22.87 34.59 26.62 34.16L37.98 32.75V36.65C37.98 40.11 36.72 43 34.19 45.31H34.2Z" fill="#202042"/>
</svg>
