<svg width="87" height="130" viewBox="0 0 87 130" fill="none" xmlns="http://www.w3.org/2000/svg">
<path d="M64.9501 83.89V57.55C64.9501 53.03 63.2601 49.43 59.8901 46.76C56.5101 44.09 51.9901 42.75 46.3301 42.75C40.6701 42.75 36.2401 44.05 32.8901 46.65C29.5401 49.25 27.8701 52.73 27.8701 57.09H39.1701C39.1201 55.12 39.7401 53.57 41.0401 52.45C42.3401 51.33 44.0501 50.78 46.1801 50.78C48.4701 50.78 50.2401 51.36 51.5201 52.53C52.8001 53.7 53.4301 55.24 53.4301 57.17V58.81L44.9401 59.82C32.3701 61.38 26.0801 65.92 26.0801 73.46C26.0801 76.99 27.3401 79.79 29.8601 81.84C32.3801 83.89 35.7201 84.92 39.8701 84.92C42.7301 84.92 45.2601 84.4 47.4701 83.36C49.6801 82.32 51.4101 80.82 52.6501 78.84H53.4301V83.91H64.9601L64.9501 83.89ZM50.6901 74.85C48.8701 76.51 46.5301 77.34 43.6801 77.34C41.7101 77.34 40.1601 76.91 39.0401 76.05C37.9201 75.19 37.3701 74.01 37.3701 72.5C37.3701 70.99 38.0001 69.81 39.2801 68.8C40.5501 67.79 42.5401 67.13 45.2401 66.81L53.4201 65.8V68.6C53.4201 71.09 52.5101 73.17 50.6901 74.83" fill="#202042"/>
<mask id="mask0_18_3" style="mask-type:luminance" maskUnits="userSpaceOnUse" x="0" y="0" width="26" height="130">
<path d="M4.42021 0.0100021C2.38021 0.0100021 0.720215 1.67001 0.720215 3.71001V126.09C0.720215 128.13 2.38021 129.79 4.42021 129.79H25.7402V120H10.5102V9.80001H25.7402V0H4.42021V0.0100021Z" fill="white"/>
</mask>
<g mask="url(#mask0_18_3)">
<path d="M1.81028 -5.11748L-25.8457 124.106L24.641 134.911L52.297 5.6875L1.81028 -5.11748Z" fill="url(#paint0_linear_18_3)"/>
</g>
<mask id="mask1_18_3" style="mask-type:luminance" maskUnits="userSpaceOnUse" x="61" y="0" width="26" height="130">
<path d="M61.4302 0.0100021V9.81001H76.6602V120.01H61.4302V129.8H82.7502C84.7902 129.8 86.4502 128.14 86.4502 126.1V3.72C86.4502 1.68 84.7902 0.0200043 82.7502 0.0200043H61.4302V0.0100021Z" fill="white"/>
</mask>
<g mask="url(#mask1_18_3)">
<path d="M62.5256 -5.11311L34.8696 124.111L85.3563 134.916L113.012 5.69187L62.5256 -5.11311Z" fill="url(#paint1_linear_18_3)"/>
</g>
<defs>
<linearGradient id="paint0_linear_18_3" x1="26.8787" y1="0.758991" x2="-2.01772" y2="135.779" gradientUnits="userSpaceOnUse">
<stop stop-color="#0FA3F2"/>
<stop offset="1" stop-color="#4B4BFA"/>
</linearGradient>
<linearGradient id="paint1_linear_18_3" x1="85.0136" y1="13.2089" x2="56.1172" y2="148.228" gradientUnits="userSpaceOnUse">
<stop stop-color="#0FA3F2"/>
<stop offset="1" stop-color="#4B4BFA"/>
</linearGradient>
</defs>
</svg>
